<svg width="755" height="755" xmlns="http://www.w3.org/2000/svg">
    <path fill="#D1D1D1" d="M657.6,365.4H90.8c-32.8,0-59.4-26.6-59.4-59.4V59.4C31.4,26.6,58,0,90.8,0h566.8C690.4,0,717,26.6,717,59.4
	V306C717,338.8,690.4,365.4,657.6,365.4z"/>
    <circle fill="#FFFFFF" cx="213.7" cy="52.5" r="28.1"/>
    <circle fill="#FFFFFF" cx="538.8" cy="52.5" r="28.1"/>
    <path fill="#4183F2" d="M745.9,693.1l-23.9-267.4l23.6-253.9c3.1-33.3-23.1-62.1-56.6-62.1H65.9c-33.4,0-59.7,28.8-56.6,62.1
	l23.6,253.9L9.1,693.1c-3,33.2,23.2,61.9,56.6,61.9h623.7C722.7,755,748.9,726.4,745.9,693.1z"/>
    <path fill="#2E5ECC" d="M689.1,109.7H65.9c-33.4,0-59.7,28.8-56.6,62.1l23.6,253.9h689.1l23.6-253.9
	C748.8,138.5,722.6,109.7,689.1,109.7z"/>
    <path fill="#4183F2" d="M32.9,425.7L9.1,693.1c-3,33.2,23.2,61.9,56.6,61.9h623.7c33.4,0,59.5-28.6,56.6-61.9l-23.9-267.4H32.9
	L32.9,425.7z"/>
    <polygon fill="#FFFFFF" points="423.9,347.7 503.4,318.4 503.4,593.3 545.5,593.3 545.5,266.7 423.9,311 "/>
    <path fill="#FFFFFF" d="M211.3,356.2h-35.9c0,0-4.1-87.1,100.1-87.1c24.6,0,86.5,3.4,89.2,80.4c0.8,23.8-2.8,54.1-47.7,77.3
	c0,0,51.9,10.1,51.9,81.3s-68,87.5-105.7,85.2c-37.5-2.3-89.2-26.6-89.2-87.1h32.1c0,0,4.3,58.3,64.8,55.3
	c53-2.6,59.6-45.8,59.6-56.2c0-10.4,0-59.9-64.5-62.6h-30.6V414h29.6c0,0,63.4-9.9,61.1-59c-2.1-45.4-39.1-54.7-57-54.7
	C251.3,300.3,211.3,309.8,211.3,356.2z"/>
    <polygon fill="#C0C3D7" points="545.5,266.7 423.9,311 423.9,347.7 503.4,318.4 503.4,427.7 545.5,427.7 "/>
    <path fill="#C0C3D7" d="M317,426.8c44.9-23.2,48.5-53.4,47.7-77.3c-2.8-77-64.6-80.4-89.2-80.4c-104.2,0-100.1,87.1-100.1,87.1h35.9
	c0-46.4,40-55.9,57.9-55.9c17.9,0,54.9,9.3,57,54.7c2.3,49-61.1,59-61.1,59h-29.6v13.8h84.9C318.3,427,317,426.8,317,426.8z"/>
</svg>
